<svg width="31" height="31" viewBox="0 0 31 31" fill="none" xmlns="http://www.w3.org/2000/svg">
<path d="M28.0498 15.3C28.0498 18.6815 26.7065 21.9245 24.3154 24.3156C21.9243 26.7067 18.6813 28.05 15.2998 28.05C11.9183 28.05 8.67528 26.7067 6.28419 24.3156C3.8931 21.9245 2.5498 18.6815 2.5498 15.3C2.5498 11.9185 3.8931 8.67548 6.28419 6.28439C8.67528 3.8933 11.9183 2.55 15.2998 2.55C18.6813 2.55 21.9243 3.8933 24.3154 6.28439C26.7065 8.67548 28.0498 11.9185 28.0498 15.3ZM15.2998 8.925C15.0983 8.92506 14.8991 8.96735 14.7149 9.04912C14.5308 9.1309 14.3658 9.25036 14.2307 9.3998C14.0956 9.54924 13.9932 9.72534 13.9303 9.91675C13.8674 10.1082 13.8453 10.3106 13.8654 10.5111L14.4239 16.0994C14.4443 16.3176 14.5454 16.5203 14.7074 16.6679C14.8694 16.8154 15.0807 16.8972 15.2998 16.8972C15.5189 16.8972 15.7302 16.8154 15.8922 16.6679C16.0542 16.5203 16.1553 16.3176 16.1757 16.0994L16.7342 10.5111C16.7543 10.3106 16.7322 10.1082 16.6693 9.91675C16.6064 9.72534 16.5041 9.54924 16.3689 9.3998C16.2338 9.25036 16.0688 9.1309 15.8847 9.04912C15.7005 8.96735 15.5013 8.92506 15.2998 8.925ZM15.3024 18.4875C14.8797 18.4875 14.4743 18.6554 14.1754 18.9543C13.8765 19.2532 13.7086 19.6586 13.7086 20.0813C13.7086 20.5039 13.8765 20.9093 14.1754 21.2082C14.4743 21.5071 14.8797 21.675 15.3024 21.675C15.725 21.675 16.1304 21.5071 16.4293 21.2082C16.7282 20.9093 16.8961 20.5039 16.8961 20.0813C16.8961 19.6586 16.7282 19.2532 16.4293 18.9543C16.1304 18.6554 15.725 18.4875 15.3024 18.4875Z" fill="#404040"/>
</svg>
