<svg width="75" height="87" viewBox="0 0 75 87" fill="none" xmlns="http://www.w3.org/2000/svg">
<path d="M69.273 14.1475C57.795 14.1662 46.6242 10.4395 37.4564 3.53308C28.2887 10.4396 17.1179 14.1663 5.63985 14.1475C4.69757 14.1475 3.7553 14.1247 2.82446 14.0726V34.0274C2.8363 51.9647 9.97522 68.4917 25.6468 77.2145L37.4564 83.7698L49.2661 77.2145C64.9377 68.4917 72.0766 51.9647 72.0884 34.0274V14.0726C71.1564 14.1247 70.2141 14.1475 69.273 14.1475Z" fill="white"/>
<path d="M69.273 12.4135C58.1686 12.4485 47.3589 8.84302 38.4989 2.149L37.4564 1.36377L36.4139 2.149C27.5541 8.8433 16.7442 12.4489 5.63983 12.4135C4.69282 12.4135 3.77736 12.3894 2.9215 12.3413L1.09021 12.2387V34.0287C1.10323 54.0561 9.74673 70.3492 24.8051 78.731L37.4564 85.7547L50.1094 78.731C65.1661 70.3503 73.8096 54.0573 73.8242 34.0287V12.2387L71.9929 12.3413C71.1343 12.3894 70.22 12.4135 69.273 12.4135ZM70.3542 34.0264C70.3419 52.7591 62.3483 67.9485 48.4244 75.6982L37.4548 81.7868L26.4884 75.6994C12.5629 67.9485 4.56971 52.7591 4.55708 34.0275V15.8717C4.91221 15.8782 5.2726 15.8817 5.63826 15.8819C17.0528 15.918 28.1874 12.3499 37.4548 5.68611C46.7229 12.35 57.858 15.9182 69.273 15.8819C69.6384 15.8819 69.9988 15.8785 70.3542 15.8717V34.0264Z" fill="#0CBC8B"/>
<path d="M37.4553 87L24.276 79.6835C8.86092 71.1043 0.0130215 54.4637 0 34.0294V11.086L2.98232 11.2529C3.81688 11.2995 4.71062 11.3236 5.63909 11.3236C16.5071 11.3583 27.0869 7.82968 35.7581 1.27808L37.4549 0L39.1516 1.27808C47.8235 7.83027 58.4042 11.3589 69.2731 11.3236C70.2019 11.3236 71.0956 11.2995 71.9298 11.2529L74.9125 11.086V34.0275C74.8991 54.4637 66.0524 71.1039 50.6397 79.6815L37.4553 87ZM2.17893 13.3912V34.0283C2.19274 53.6485 10.6314 69.5962 25.3343 77.778L37.4553 84.5066L49.5795 77.7769C64.2791 69.5946 72.7186 53.6481 72.7312 34.0267V13.3896L72.051 13.4291C71.1769 13.478 70.2414 13.5033 69.2719 13.5033C57.931 13.539 46.891 9.85622 37.8428 3.01901L37.4553 2.7278L37.0678 3.01901C28.0196 9.85645 16.9794 13.5392 5.6383 13.5033C4.66879 13.5033 3.73401 13.478 2.8592 13.4291L2.17893 13.3912ZM37.4553 83.0332L25.9601 76.6523C11.6783 68.7029 3.48068 53.1671 3.46845 34.0283V14.7624L4.57804 14.7817C4.92686 14.7881 5.28159 14.7916 5.63948 14.7916C16.8254 14.8227 27.7364 11.3265 36.8212 4.80019L37.4565 4.34483L38.0918 4.80019C47.1764 11.3265 58.0873 14.8226 69.2731 14.7916C69.6313 14.7916 69.9852 14.7883 70.3345 14.7817L71.4441 14.7624V34.0271C71.4315 53.1667 63.2342 68.7025 48.9548 76.6507L37.4553 83.0332ZM5.64738 16.9717V34.0275C5.65961 52.3518 13.4496 67.1936 27.0192 74.7468L37.4553 80.5398L47.8946 74.7452C61.4602 67.1932 69.251 52.3526 69.2628 34.0255V16.9717C57.8898 17.0012 46.7838 13.5267 37.4553 7.02094C28.1267 13.5269 17.0205 17.0013 5.64738 16.9717Z" fill="#0CBC8B"/>
<path d="M30.3771 59.7027C29.9998 59.7031 29.626 59.629 29.2774 59.4845C28.9288 59.3401 28.6122 59.1282 28.3457 58.861L17.2661 47.7801C16.7271 47.2412 16.4243 46.5102 16.4243 45.748C16.4243 44.9858 16.7271 44.2548 17.2661 43.7158C17.805 43.1769 18.536 42.8741 19.2982 42.8741C20.0604 42.8741 20.7914 43.1769 21.3303 43.7158L30.3795 52.7654L53.5849 28.4409C53.8518 28.174 54.1686 27.9623 54.5173 27.8179C54.8659 27.6735 55.2397 27.5991 55.6171 27.5991C55.9945 27.5991 56.3681 27.6735 56.7168 27.8179C57.0655 27.9623 57.3823 28.174 57.6492 28.4409C57.916 28.7077 58.1277 29.0245 58.2722 29.3732C58.4166 29.7219 58.4909 30.0956 58.4909 30.473C58.4909 30.8504 58.4166 31.2241 58.2722 31.5728C58.1277 31.9215 57.916 32.2383 57.6492 32.5051L32.412 58.8602C32.1452 59.1279 31.828 59.3402 31.4787 59.4848C31.1295 59.6294 30.7551 59.7034 30.3771 59.7027Z" fill="#262626"/>
</svg>
