<svg width="121" height="132" viewBox="0 0 121 132" fill="none" xmlns="http://www.w3.org/2000/svg">
<path d="M40.33 22.0299L39.4819 108.965C39.4518 112.053 41.9312 114.582 45.0199 114.612L74.7409 114.902C77.8296 114.932 80.3579 112.452 80.388 109.364L81.236 22.429C81.2662 19.3403 78.7867 16.812 75.698 16.7819L45.9771 16.492C42.8884 16.4618 40.3601 18.9412 40.33 22.0299Z" fill="#367CFF"/>
<path d="M53.0394 27.4529C54.2159 25.1921 53.337 22.4056 51.0762 21.229C48.8154 20.0525 46.0289 20.9315 44.8523 23.1923C43.6758 25.4531 44.5548 28.2395 46.8156 29.4161C49.0763 30.5926 51.8628 29.7137 53.0394 27.4529Z" fill="white"/>
<path d="M67.6106 34.7996L67.5695 39.0152C67.5614 39.8372 68.2213 40.51 69.0433 40.5181L75.7188 40.5832C76.5408 40.5912 77.2137 39.9313 77.2217 39.1093L77.2628 34.8937C77.2708 34.0717 76.6109 33.3988 75.7889 33.3908L69.1135 33.3257C68.2915 33.3177 67.6186 33.9775 67.6106 34.7996Z" fill="white"/>
<path d="M44.0588 34.5684L44.0177 38.784C44.0097 39.606 44.6695 40.2788 45.4916 40.2869L52.167 40.352C52.989 40.36 53.6619 39.7001 53.6699 38.8781L53.711 34.6625C53.7191 33.8405 53.0592 33.1676 52.2372 33.1596L45.5617 33.0945C44.7397 33.0865 44.0668 33.7463 44.0588 34.5684Z" fill="white"/>
<path d="M55.8358 34.6844L55.7947 38.9C55.7867 39.7221 56.4465 40.3949 57.2685 40.4029L63.944 40.4681C64.766 40.4761 65.4389 39.8162 65.4469 38.9942L65.488 34.7786C65.496 33.9566 64.8362 33.2836 64.0142 33.2756L57.3387 33.2105C56.5167 33.2025 55.8438 33.8624 55.8358 34.6844Z" fill="white"/>
<path d="M67.5155 44.6094L67.4744 48.825C67.4663 49.647 68.1262 50.3199 68.9482 50.3279L75.6237 50.393C76.4457 50.401 77.1186 49.7411 77.1266 48.9191L77.1677 44.7035C77.1757 43.8815 76.5159 43.2086 75.6938 43.2006L69.0184 43.1355C68.1964 43.1275 67.5235 43.7874 67.5155 44.6094Z" fill="white"/>
<path d="M43.9637 44.3782L43.9226 48.5938C43.9146 49.4158 44.5745 50.0887 45.3965 50.0967L52.0719 50.1618C52.8939 50.1698 53.5668 49.5099 53.5748 48.6879L53.6159 44.4723C53.624 43.6503 52.9641 42.9774 52.1421 42.9694L45.4666 42.9042C44.6446 42.8962 43.9717 43.5562 43.9637 44.3782Z" fill="white"/>
<path d="M55.7386 44.4934L55.6975 48.709C55.6895 49.531 56.3494 50.2039 57.1714 50.2119L63.8468 50.277C64.6688 50.285 65.3417 49.6252 65.3497 48.8032L65.3908 44.5876C65.3989 43.7655 64.739 43.0927 63.917 43.0847L57.2416 43.0195C56.4196 43.0115 55.7466 43.6714 55.7386 44.4934Z" fill="white"/>
<path d="M67.4186 54.4183L67.3774 58.6339C67.3694 59.4559 68.0293 60.1288 68.8513 60.1368L75.5268 60.202C76.3488 60.21 77.0216 59.5501 77.0297 58.7281L77.0708 54.5125C77.0788 53.6905 76.4189 53.0176 75.5969 53.0096L68.9215 52.9445C68.0994 52.9364 67.4266 53.5963 67.4186 54.4183Z" fill="white"/>
<path d="M43.8668 54.1848L43.8257 58.4004C43.8177 59.2224 44.4775 59.8953 45.2995 59.9033L51.975 59.9684C52.797 59.9765 53.4699 59.3166 53.4779 58.4946L53.519 54.279C53.527 53.457 52.8672 52.7841 52.0452 52.7761L45.3697 52.7109C44.5477 52.7029 43.8748 53.3628 43.8668 54.1848Z" fill="white"/>
<path d="M55.6438 54.301L55.6027 58.5166C55.5946 59.3386 56.2545 60.0115 57.0765 60.0195L63.752 60.0846C64.574 60.0927 65.2469 59.4328 65.2549 58.6108L65.296 54.3952C65.304 53.5732 64.6441 52.9003 63.8221 52.8923L57.1467 52.8272C56.3247 52.8191 55.6518 53.479 55.6438 54.301Z" fill="white"/>
<path d="M43.756 65.6876L43.6923 72.216C43.6799 73.4909 44.7033 74.5344 45.9781 74.5468L56.3188 74.6477C57.5937 74.6601 58.6373 73.6368 58.6497 72.3619L58.7134 65.8335C58.7258 64.5587 57.7024 63.5151 56.4275 63.5027L46.0868 63.4018C44.812 63.3893 43.7684 64.4128 43.756 65.6876Z" fill="white"/>
<path d="M62.002 65.8647L61.9383 72.3931C61.9259 73.6679 62.9492 74.7115 64.2241 74.7239L74.5648 74.8248C75.8397 74.8372 76.8832 73.8138 76.8957 72.539L76.9593 66.0106C76.9718 64.7357 75.9484 63.6922 74.6735 63.6798L64.3328 63.5789C63.058 63.5665 62.0144 64.5898 62.002 65.8647Z" fill="white"/>
<path d="M43.6124 80.2758L43.5488 86.8043C43.5363 88.0791 44.5597 89.1226 45.8346 89.1351L56.1753 89.2359C57.4502 89.2484 58.4937 88.225 58.5062 86.9502L58.5699 80.4217C58.5823 79.1469 57.5589 78.1034 56.284 78.0909L45.9433 77.99C44.6685 77.9776 43.6249 79.001 43.6124 80.2758Z" fill="white"/>
<path d="M61.8604 80.4562L61.7967 86.9846C61.7843 88.2595 62.8076 89.3031 64.0825 89.3155L74.4232 89.4164C75.6981 89.4288 76.7416 88.4054 76.7541 87.1305L76.8177 80.6021C76.8302 79.3273 75.8068 78.2837 74.5319 78.2713L64.1912 78.1704C62.9164 78.158 61.8728 79.1814 61.8604 80.4562Z" fill="white"/>
<path d="M67.6246 106.306C69.8158 102.095 68.1789 96.9059 63.9684 94.7147C59.7579 92.5235 54.5684 94.1605 52.3772 98.3709C50.1861 102.581 51.8231 107.771 56.0335 109.962C60.244 112.153 65.4335 110.516 67.6246 106.306Z" fill="white"/>
</svg>
