<svg width="33" height="33" viewBox="0 0 33 33" fill="none" xmlns="http://www.w3.org/2000/svg">
<path d="M20.625 11.3438V8.76562C20.625 8.08186 20.3534 7.42611 19.8699 6.94262C19.3864 6.45912 18.7306 6.1875 18.0469 6.1875H5.67188C4.98811 6.1875 4.33236 6.45912 3.84887 6.94262C3.36537 7.42611 3.09375 8.08186 3.09375 8.76562V24.2344C3.09375 24.9181 3.36537 25.5739 3.84887 26.0574C4.33236 26.5409 4.98811 26.8125 5.67188 26.8125H18.0469C18.7306 26.8125 19.3864 26.5409 19.8699 26.0574C20.3534 25.5739 20.625 24.9181 20.625 24.2344V21.6562" stroke="#FF3A3A" stroke-width="2.875" stroke-linecap="round" stroke-linejoin="round"/>
<path d="M24.75 11.3438L29.9062 16.5L24.75 21.6562" stroke="#FF3A3A" stroke-width="2.875" stroke-linecap="round" stroke-linejoin="round"/>
<path d="M12.3105 16.5H29.9064" stroke="#FF3A3A" stroke-width="2.875" stroke-linecap="round" stroke-linejoin="round"/>
</svg>
