<svg width="66" height="65" viewBox="0 0 66 65" fill="none" xmlns="http://www.w3.org/2000/svg">
<g clip-path="url(#clip0_41_31)">
<path d="M65.8037 32.6975C65.8037 14.7482 51.253 0.19751 33.3037 0.19751C15.3544 0.19751 0.803711 14.7482 0.803711 32.6975C0.803711 48.9192 12.6886 62.3646 28.2256 64.8027V42.092H19.9736V32.6975H28.2256V25.5374C28.2256 17.392 33.0776 12.8928 40.5013 12.8928C44.0571 12.8928 47.7764 13.5276 47.7764 13.5276V21.5256H43.6782C39.641 21.5256 38.3818 24.0308 38.3818 26.601V32.6975H47.3955L45.9546 42.092H38.3818V64.8027C53.919 62.3646 65.8037 48.9192 65.8037 32.6975Z" fill="white"/>
</g>
<defs>
<clipPath id="clip0_41_31">
<rect width="65" height="65" fill="white" transform="translate(0.803711)"/>
</clipPath>
</defs>
</svg>
