<svg width="66" height="65" viewBox="0 0 66 65" fill="none" xmlns="http://www.w3.org/2000/svg">
<path d="M33.3038 4.7666C25.7719 4.7666 24.8275 4.79853 21.8694 4.93349C18.9175 5.06824 16.9015 5.53699 15.1374 6.22262C13.3137 6.93136 11.767 7.87965 10.2253 9.42142C8.68349 10.9632 7.7352 12.5098 7.02646 14.3335C6.34084 16.0976 5.87209 18.1136 5.73734 21.0655C5.60237 24.0235 5.57056 24.9679 5.57056 32.4999C5.57056 40.0317 5.60237 40.9762 5.73734 43.9342C5.87209 46.8861 6.34084 48.9021 7.02646 50.6662C7.7352 52.4899 8.68349 54.0365 10.2253 55.5784C11.767 57.1201 13.3137 58.0684 15.1374 58.7772C16.9015 59.4627 18.9175 59.9315 21.8694 60.0662C24.8275 60.2011 25.7719 60.2331 33.3038 60.2331C40.8357 60.2331 41.7801 60.2011 44.7382 60.0662C47.69 59.9315 49.7061 59.4627 51.4701 58.7772C53.2938 58.0684 54.8404 57.1201 56.3823 55.5784C57.9241 54.0365 58.8724 52.4899 59.5811 50.6662C60.2666 48.9021 60.7355 46.8861 60.8701 43.9342C61.0051 40.9762 61.037 40.0317 61.037 32.4999C61.037 24.9679 61.0051 24.0235 60.8701 21.0655C60.7355 18.1136 60.2666 16.0976 59.5811 14.3335C58.8724 12.5098 57.9241 10.9632 56.3823 9.42142C54.8404 7.87965 53.2938 6.93136 51.4701 6.22262C49.7061 5.53699 47.69 5.06824 44.7382 4.93349C41.7801 4.79853 40.8357 4.7666 33.3038 4.7666ZM33.3038 9.76368C40.7089 9.76368 41.586 9.79186 44.5104 9.92529C47.2144 10.0487 48.6828 10.5005 49.6601 10.8802C50.9546 11.3833 51.8784 11.9844 52.8489 12.9548C53.8194 13.9252 54.4203 14.8492 54.9234 16.1436C55.3032 17.1208 55.755 18.5893 55.8783 21.2932C56.0118 24.2176 56.0401 25.0948 56.0401 32.4999C56.0401 39.9049 56.0118 40.7821 55.8783 43.7064C55.755 46.4104 55.3032 47.8789 54.9234 48.8561C54.4203 50.1506 53.8194 51.0745 52.8489 52.0449C51.8784 53.0154 50.9546 53.6164 49.6601 54.1195C48.6828 54.4993 47.2144 54.9511 44.5104 55.0744C41.5865 55.2078 40.7094 55.2361 33.3038 55.2361C25.8982 55.2361 25.0212 55.2078 22.0972 55.0744C19.3932 54.9511 17.9248 54.4993 16.9475 54.1195C15.653 53.6164 14.7292 53.0154 13.7586 52.0449C12.7882 51.0745 12.1871 50.1506 11.6841 48.8561C11.3043 47.8789 10.8525 46.4104 10.7291 43.7064C10.5957 40.7821 10.5675 39.9049 10.5675 32.4999C10.5675 25.0948 10.5957 24.2176 10.7291 21.2932C10.8525 18.5893 11.3043 17.1208 11.6841 16.1436C12.1871 14.8492 12.7882 13.9252 13.7586 12.9548C14.7292 11.9844 15.653 11.3833 16.9475 10.8802C17.9248 10.5005 19.3932 10.0487 22.0972 9.92529C25.0215 9.79186 25.8987 9.76368 33.3038 9.76368Z" fill="white"/>
<path d="M33.3038 41.7443C28.1982 41.7443 24.0593 37.6055 24.0593 32.5C24.0593 27.3944 28.1982 23.2555 33.3038 23.2555C38.4093 23.2555 42.5482 27.3944 42.5482 32.5C42.5482 37.6055 38.4093 41.7443 33.3038 41.7443ZM33.3038 18.2585C25.4384 18.2585 19.0624 24.6346 19.0624 32.5C19.0624 40.3653 25.4384 46.7413 33.3038 46.7413C41.1691 46.7413 47.5451 40.3653 47.5451 32.5C47.5451 24.6346 41.1691 18.2585 33.3038 18.2585Z" fill="white"/>
<path d="M51.4358 17.6959C51.4358 19.5339 49.9457 21.0238 48.1077 21.0238C46.2698 21.0238 44.7798 19.5339 44.7798 17.6959C44.7798 15.8578 46.2698 14.3679 48.1077 14.3679C49.9457 14.3679 51.4358 15.8578 51.4358 17.6959Z" fill="white"/>
</svg>
