<svg width="77" height="116" viewBox="0 0 77 116" fill="none" xmlns="http://www.w3.org/2000/svg">
<path d="M62.7259 22.5992V45.0644C62.7259 45.963 62.369 46.8247 61.7336 47.4601C61.0982 48.0955 60.2365 48.4524 59.3379 48.4524C58.4394 48.4524 57.5777 48.0955 56.9423 47.4601C56.3069 46.8247 55.95 45.963 55.95 45.0644V22.5992C55.95 13.8773 48.1213 6.77593 38.4997 6.77593C28.8781 6.77593 21.0494 13.8773 21.0494 22.5992V46.7233C21.0494 47.6219 20.6925 48.4836 20.0571 49.119C19.4218 49.7543 18.56 50.1113 17.6615 50.1113C16.7629 50.1113 15.9012 49.7543 15.2658 49.119C14.6305 48.4836 14.2735 47.6219 14.2735 46.7233V22.5992C14.2735 10.1384 25.1393 0 38.4997 0C51.8602 0 62.7259 10.1384 62.7259 22.5992Z" fill="#292A2E"/>
<path d="M62.7259 45.0644C62.7259 45.963 62.369 46.8247 61.7336 47.4601C61.0982 48.0955 60.2365 48.4524 59.3379 48.4524C58.4394 48.4524 57.5777 48.0955 56.9423 47.4601C56.3069 46.8247 55.95 45.963 55.95 45.0644V22.5992C55.95 13.8773 48.1213 6.77593 38.4997 6.77593C28.8781 6.77593 21.0494 13.8773 21.0494 22.5992V46.7233C21.0494 47.6219 20.6925 48.4836 20.0571 49.119C19.4218 49.7543 18.56 50.1113 17.6615 50.1113C16.7629 50.1113 15.9012 49.7543 15.2658 49.119C14.6305 48.4836 14.2735 47.6219 14.2735 46.7233V22.5992C14.2735 10.1384 25.1393 0 38.4997 0C51.8602 0 62.7259 10.1384 62.7259 22.5992V45.0644Z" fill="#292A2E"/>
<path d="M70.2872 42.5499H6.71277C3.00541 42.5499 0 45.5553 0 49.2627V109.145C0 112.853 3.00541 115.858 6.71277 115.858H70.2872C73.9946 115.858 77 112.853 77 109.145V49.2627C77 45.5553 73.9946 42.5499 70.2872 42.5499Z" fill="#367CFF"/>
<path d="M32.171 73.2757C32.1713 74.464 32.5058 75.6283 33.1362 76.6356C33.7667 77.6429 34.6677 78.4525 35.7364 78.9721V88.6971C35.7474 89.4228 36.0434 90.115 36.5605 90.6243C37.0776 91.1336 37.7742 91.419 38.5 91.419C39.2258 91.419 39.9224 91.1336 40.4395 90.6243C40.9566 90.115 41.2526 89.4228 41.2636 88.6971V78.9715C42.2807 78.4781 43.1471 77.7214 43.7728 76.78C44.3985 75.8385 44.7607 74.7467 44.8217 73.618C44.8827 72.4892 44.6403 71.3647 44.1198 70.3613C43.5992 69.3579 42.8195 68.5121 41.8615 67.912C40.9036 67.3119 39.8024 66.9792 38.6724 66.9486C37.5425 66.918 36.4249 67.1905 35.4358 67.7379C34.4468 68.2853 33.6224 69.0875 33.0482 70.0612C32.4741 71.035 32.1712 72.1453 32.171 73.2757Z" fill="#262626"/>
</svg>
