<svg width="31" height="31" viewBox="0 0 31 31" fill="none" xmlns="http://www.w3.org/2000/svg">
<path d="M2.87906 6.7779C2.58474 6.94542 2.34018 7.18809 2.17037 7.4811C2.00057 7.77411 1.91162 8.10695 1.91261 8.4456V26.1809C1.91171 26.5185 2.00022 26.8504 2.16914 27.1427C2.33806 27.4351 2.58137 27.6775 2.87434 27.8453C3.1673 28.0132 3.49949 28.1005 3.83713 28.0984C4.17476 28.0962 4.50582 28.0048 4.79666 27.8333L9.82526 24.5438C9.89226 24.5001 9.94723 24.4404 9.9851 24.37C10.023 24.2996 10.0425 24.2208 10.042 24.1409V2.78078C10.0422 2.69374 10.0187 2.60829 9.97395 2.53364C9.92919 2.45899 9.8649 2.39798 9.78802 2.35718C9.71114 2.31637 9.62458 2.29733 9.53767 2.3021C9.45076 2.30687 9.36681 2.33528 9.29486 2.38425L2.87906 6.7779Z" fill="#404040"/>
<path d="M12.6914 2.34855C12.6193 2.30185 12.5361 2.2754 12.4503 2.27199C12.3645 2.26857 12.2794 2.28831 12.2039 2.32913C12.1284 2.36995 12.0652 2.43035 12.0211 2.50399C11.977 2.57762 11.9535 2.66178 11.9531 2.74762V24.1179C11.9529 24.1976 11.9726 24.2761 12.0105 24.3462C12.0483 24.4164 12.1031 24.476 12.1699 24.5195L17.9074 28.2502C17.9795 28.2973 18.063 28.324 18.1491 28.3275C18.2352 28.3311 18.3206 28.3113 18.3964 28.2703C18.4721 28.2293 18.5354 28.1685 18.5795 28.0945C18.6236 28.0205 18.6469 27.936 18.6469 27.8498V6.49357C18.6471 6.41387 18.6274 6.33537 18.5895 6.26523C18.5517 6.19509 18.4969 6.13552 18.4301 6.09195L12.6914 2.34855Z" fill="#404040"/>
<path d="M27.7633 2.77822C27.469 2.59834 27.131 2.50242 26.786 2.50084C26.441 2.49927 26.1022 2.59211 25.8062 2.7693L20.7763 6.05752C20.7096 6.1011 20.6548 6.16066 20.6169 6.23081C20.5791 6.30095 20.5594 6.37944 20.5596 6.45915V27.823C20.5594 27.9102 20.5831 27.9957 20.628 28.0704C20.6729 28.145 20.7374 28.206 20.8144 28.2467C20.8915 28.2874 20.9782 28.3063 21.0652 28.3012C21.1522 28.2962 21.2361 28.2676 21.308 28.2183L27.7072 23.8285C28.0051 23.6622 28.2531 23.4193 28.4255 23.125C28.5979 22.8306 28.6884 22.4955 28.6877 22.1544V4.46377C28.6917 4.12703 28.6087 3.79496 28.4467 3.49968C28.2848 3.20441 28.0494 2.95591 27.7633 2.77822Z" fill="#404040"/>
</svg>
