<svg width="40" height="40" viewBox="0 0 40 40" fill="none" xmlns="http://www.w3.org/2000/svg">
<path d="M33.3847 7.98505H26.0257V6.14531C26.0257 5.74264 25.9464 5.34392 25.7923 4.97191C25.6382 4.5999 25.4123 4.26188 25.1276 3.97715C24.8429 3.69242 24.5049 3.46657 24.1329 3.31247C23.7608 3.15838 23.3621 3.07907 22.9595 3.07907H16.827C16.0138 3.07907 15.2339 3.40212 14.6588 3.97715C14.0838 4.55218 13.7608 5.33209 13.7608 6.14531V7.98505H6.40179C6.0765 7.98505 5.76454 8.11427 5.53452 8.34428C5.30451 8.57429 5.17529 8.88626 5.17529 9.21154C5.17529 9.53683 5.30451 9.84879 5.53452 10.0788C5.76454 10.3088 6.0765 10.438 6.40179 10.438H7.70514L9.16058 33.8118C9.27015 35.8706 10.8482 37.4209 12.8401 37.4209H26.9448C28.948 37.4209 30.4934 35.905 30.6242 33.8183L32.0813 10.438H33.3847C33.71 10.438 34.0219 10.3088 34.2519 10.0788C34.4819 9.84879 34.6112 9.53683 34.6112 9.21154C34.6112 8.88626 34.4819 8.57429 34.2519 8.34428C34.0219 8.11427 33.71 7.98505 33.3847 7.98505ZM15.0314 32.5149H14.9872C14.6695 32.5151 14.364 32.392 14.1352 32.1715C13.9064 31.9509 13.7722 31.6502 13.7608 31.3326L13.1475 14.1617C13.1358 13.8364 13.2538 13.5198 13.4755 13.2815C13.6972 13.0432 14.0046 12.9027 14.3298 12.891C14.6551 12.8793 14.9718 12.9973 15.21 13.219C15.4483 13.4408 15.5888 13.7481 15.6005 14.0734L16.2137 31.2443C16.2196 31.4054 16.1937 31.5661 16.1375 31.7171C16.0813 31.8682 15.9958 32.0067 15.886 32.1247C15.7762 32.2427 15.6442 32.3379 15.4975 32.4049C15.3509 32.4718 15.1925 32.5092 15.0314 32.5149ZM21.1197 31.2884C21.1197 31.6137 20.9905 31.9257 20.7605 32.1557C20.5305 32.3857 20.2185 32.5149 19.8932 32.5149C19.5679 32.5149 19.256 32.3857 19.026 32.1557C18.796 31.9257 18.6667 31.6137 18.6667 31.2884V14.1175C18.6667 13.7922 18.796 13.4803 19.026 13.2503C19.256 13.0202 19.5679 12.891 19.8932 12.891C20.2185 12.891 20.5305 13.0202 20.7605 13.2503C20.9905 13.4803 21.1197 13.7922 21.1197 14.1175V31.2884ZM23.5727 7.98505H16.2137V6.14531C16.2126 6.06447 16.2278 5.98423 16.2582 5.90933C16.2886 5.83443 16.3337 5.76639 16.3909 5.70923C16.4481 5.65206 16.5161 5.60693 16.591 5.5765C16.6659 5.54607 16.7462 5.53096 16.827 5.53206H22.9595C23.0402 5.53118 23.1204 5.54645 23.1952 5.57696C23.27 5.60747 23.3379 5.6526 23.395 5.70972C23.4522 5.76685 23.4973 5.8348 23.5278 5.9096C23.5583 5.98439 23.5736 6.06453 23.5727 6.14531V7.98505ZM26.0257 31.3326C26.0143 31.6502 25.88 31.9509 25.6512 32.1715C25.4224 32.392 25.117 32.5151 24.7992 32.5149H24.7551C24.594 32.5092 24.4356 32.4718 24.2889 32.4049C24.1423 32.3379 24.0103 32.2427 23.9005 32.1247C23.7907 32.0067 23.7052 31.8682 23.649 31.7171C23.5927 31.5661 23.5668 31.4054 23.5727 31.2443L24.186 14.0734C24.1918 13.9123 24.2292 13.754 24.2962 13.6074C24.3632 13.4608 24.4584 13.3288 24.5764 13.219C24.6944 13.1092 24.8329 13.0238 24.9839 12.9675C25.1349 12.9112 25.2955 12.8852 25.4566 12.891C25.6177 12.8968 25.776 12.9343 25.9226 13.0013C26.0692 13.0683 26.2011 13.1635 26.3109 13.2815C26.4207 13.3995 26.5062 13.5379 26.5625 13.689C26.6188 13.84 26.6447 14.0006 26.6389 14.1617L26.0257 31.3326Z" fill="white"/>
</svg>
