<svg width="65" height="65" viewBox="0 0 65 65" fill="none" xmlns="http://www.w3.org/2000/svg">
<g clip-path="url(#clip0_42_44)">
<path fill-rule="evenodd" clip-rule="evenodd" d="M47.391 38.9826C46.5823 38.5779 42.6065 36.6218 41.8652 36.3517C41.1241 36.0818 40.585 35.9471 40.0458 36.7564C39.5068 37.5658 37.957 39.3875 37.4852 39.9272C37.0136 40.4668 36.5418 40.5346 35.7332 40.1295C34.9245 39.7249 32.3188 38.871 29.2301 36.1158C26.8262 33.9715 25.2031 31.3234 24.7315 30.5138C24.2597 29.7043 24.6811 29.2667 25.0859 28.8635C25.4499 28.5011 25.8948 27.9189 26.299 27.4467C26.7034 26.9746 26.8381 26.6371 27.1077 26.0977C27.3772 25.5579 27.2425 25.0857 27.0401 24.681C26.8381 24.2763 25.2209 20.2958 24.547 18.6764C23.8905 17.0997 23.2239 17.3133 22.7275 17.2883C22.2564 17.2649 21.7166 17.2599 21.1777 17.2599C20.6386 17.2599 19.7624 17.4623 19.0211 18.2716C18.28 19.0812 16.191 21.0378 16.191 25.0179C16.191 28.9985 19.0885 32.8436 19.4929 33.3834C19.8972 33.9232 25.1951 42.0911 33.3074 45.5938C35.2366 46.4272 36.743 46.9247 37.9173 47.2973C39.8545 47.9129 41.6174 47.8261 43.0108 47.6177C44.5645 47.3858 47.7952 45.6616 48.4692 43.7728C49.1429 41.8835 49.1429 40.2645 48.9408 39.9272C48.7387 39.5899 48.1997 39.3875 47.391 38.9826ZM32.636 59.1292H32.625C27.798 59.1273 23.0638 57.8305 18.9338 55.3796L17.9514 54.7967L7.77055 57.4674L10.488 47.5409L9.84852 46.5231C7.15571 42.2404 5.73346 37.2904 5.73562 32.2075C5.74158 17.3762 17.8089 5.30997 32.6466 5.30997C39.8315 5.31238 46.5854 8.11411 51.6643 13.1987C56.7431 18.2832 59.5383 25.0417 59.5356 32.2292C59.5295 47.0617 47.4623 59.1292 32.636 59.1292ZM55.5297 9.33515C49.4193 3.21778 41.2934 -0.152695 32.6356 -0.15625C14.7969 -0.15625 0.278408 14.3613 0.271172 32.2055C0.268887 37.9098 1.75906 43.4772 4.59139 48.3854L0 65.1562L17.1566 60.6557C21.8838 63.2341 27.2061 64.5931 32.6228 64.5949H32.6361C50.4729 64.5949 64.9926 50.0758 65 32.2314C65.0033 23.5837 61.6399 15.4525 55.5297 9.33515Z" fill="white"/>
</g>
<defs>
<clipPath id="clip0_42_44">
<rect width="65" height="65" fill="white"/>
</clipPath>
</defs>
</svg>
