<svg width="46" height="46" viewBox="0 0 46 46" fill="none" xmlns="http://www.w3.org/2000/svg">
<path d="M42.1668 23C42.1668 28.0833 40.1475 32.9584 36.553 36.5529C32.9586 40.1473 28.0835 42.1667 23.0002 42.1667C17.9168 42.1667 13.0417 40.1473 9.44728 36.5529C5.85284 32.9584 3.8335 28.0833 3.8335 23C3.8335 17.9167 5.85284 13.0416 9.44728 9.44712C13.0417 5.85267 17.9168 3.83333 23.0002 3.83333C28.0835 3.83333 32.9586 5.85267 36.553 9.44712C40.1475 13.0416 42.1668 17.9167 42.1668 23ZM23.0002 13.4167C22.6973 13.4168 22.3978 13.4803 22.121 13.6033C21.8442 13.7262 21.5962 13.9058 21.393 14.1304C21.1899 14.3551 21.036 14.6198 20.9415 14.9075C20.8469 15.1953 20.8137 15.4996 20.8439 15.801L21.6834 24.2017C21.7141 24.5297 21.8661 24.8345 22.1096 25.0563C22.3532 25.2781 22.6707 25.4011 23.0002 25.4011C23.3296 25.4011 23.6471 25.2781 23.8907 25.0563C24.1342 24.8345 24.2862 24.5297 24.3169 24.2017L25.1564 15.801C25.1867 15.4996 25.1534 15.1953 25.0589 14.9075C24.9643 14.6198 24.8105 14.3551 24.6073 14.1304C24.4042 13.9058 24.1562 13.7262 23.8794 13.6033C23.6025 13.4803 23.303 13.4168 23.0002 13.4167ZM23.004 27.7917C22.3686 27.7917 21.7592 28.0441 21.3099 28.4934C20.8606 28.9427 20.6082 29.5521 20.6082 30.1875C20.6082 30.8229 20.8606 31.4323 21.3099 31.8816C21.7592 32.3309 22.3686 32.5833 23.004 32.5833C23.6394 32.5833 24.2488 32.3309 24.6981 31.8816C25.1474 31.4323 25.3998 30.8229 25.3998 30.1875C25.3998 29.5521 25.1474 28.9427 24.6981 28.4934C24.2488 28.0441 23.6394 27.7917 23.004 27.7917Z" fill="#404040"/>
</svg>
