<svg width="429" height="53" viewBox="0 0 429 53" fill="none" xmlns="http://www.w3.org/2000/svg">
<g clip-path="url(#clip0_3_19)">
<path d="M10.0206 12.2466C16.3389 12.2466 20.5242 16.0698 20.5242 21.9453C20.5242 27.7404 16.3389 31.2013 10.0206 31.2013H6.4792V40.4171H0V12.2466H10.0206ZM9.61819 25.688C12.234 25.688 14.045 24.7624 14.045 21.9453C14.045 19.1685 12.234 18.2027 9.61819 18.2027H6.4792V25.688H9.61819ZM46.8032 40.4171L44.8312 35.7488H31.5911L29.6192 40.4171H22.7376L35.2533 12.2466H41.1691L53.6848 40.4171H46.8032ZM33.8448 30.4769H42.6178L38.2313 20.0941L33.8448 30.4769ZM72.5992 40.4171L66.8444 31.2013H63.3835V40.4171H56.9043V12.2466H66.9249C73.2431 12.2466 77.4285 16.0698 77.4285 21.9453C77.4285 25.688 75.6577 28.505 72.6797 29.9538L79.4406 40.4171H72.5992ZM63.3835 18.2027V25.688H66.5225C69.1383 25.688 70.9493 24.7624 70.9493 21.9453C70.9493 19.1685 69.1383 18.2027 66.5225 18.2027H63.3835ZM111.756 26.3319C111.756 30.1952 110.388 33.5354 108.174 36.0305L111.434 40.4171H103.828L103.225 39.572C101.333 40.3768 99.2807 40.8195 97.1075 40.8195C89.1393 40.8195 82.4589 34.9037 82.4589 26.3319C82.4589 17.76 89.1393 11.8442 97.1075 11.8442C105.076 11.8442 111.756 17.76 111.756 26.3319ZM97.1075 34.7427C97.9124 34.7427 98.677 34.622 99.4014 34.4208L94.2502 27.4989H101.856L104.07 30.5172C104.714 29.3099 105.035 27.8611 105.035 26.3319C105.035 21.4624 101.655 17.921 97.1075 17.921C92.56 17.921 89.2198 21.4624 89.2198 26.3319C89.2198 31.2013 92.56 34.7427 97.1075 34.7427ZM131.636 12.2466H138.116V30.1952C138.116 36.9964 133.045 41.0207 127.089 41.0207C121.093 41.0207 116.022 36.9964 116.022 30.1952V12.2466H122.501V30.2355C122.501 34.0989 125.117 34.944 127.089 34.944C129.061 34.944 131.636 34.0989 131.636 30.2355V12.2466ZM149.424 34.461H160.974V40.4171H148.619H142.945V12.2466H149.424H160.612V18.2027H149.424V23.3136H157.795V29.1489H149.424V34.461Z" fill="#426AE3"/>
<path d="M221.915 15.4826L220.633 16.089C221.665 18.2688 222.188 20.6071 222.188 23.0387C222.188 26.2724 221.242 29.3867 219.456 32.0616C218.495 32.488 217.773 33.3583 217.553 34.4112C217.474 34.4923 217.397 34.5691 217.334 34.6322C214.27 37.6522 210.213 39.3153 205.911 39.3153C201.679 39.3153 197.691 37.7084 194.647 34.7862C194.494 33.102 193.074 31.7779 191.351 31.7779C189.525 31.7779 188.039 33.2635 188.039 35.0894C188.039 36.9154 189.525 38.4008 191.351 38.4008C192.692 38.4008 193.849 37.5987 194.369 36.4492C196.925 38.6571 200.018 40.0663 203.336 40.5476C202.876 41.1164 202.599 41.8397 202.599 42.6265C202.599 44.4524 204.085 45.938 205.911 45.938C207.737 45.938 209.222 44.4524 209.222 42.6265C209.222 41.8396 208.946 41.1162 208.485 40.5474C211.904 40.0511 215.087 38.5691 217.69 36.2418C218.159 37.5012 219.373 38.4008 220.794 38.4008C222.62 38.4008 224.105 36.9154 224.105 35.0894C224.105 33.428 222.875 32.0488 221.278 31.8137C222.357 29.9309 223.073 27.8776 223.4 25.7388C223.985 26.2574 224.754 26.5733 225.595 26.5733C227.421 26.5733 228.906 25.0878 228.906 23.2619C228.906 21.4359 227.421 19.9504 225.595 19.9504C224.78 19.9504 224.034 20.2465 223.457 20.736C223.222 18.9161 222.707 17.1565 221.915 15.4826ZM191.35 33.1956C192.144 33.1956 192.824 33.6868 193.105 34.3804H189.596C189.877 33.6868 190.557 33.1956 191.35 33.1956ZM191.35 36.9831C190.557 36.9831 189.877 36.492 189.596 35.7983H193.105C192.824 36.492 192.144 36.9831 191.35 36.9831ZM205.911 40.7331C206.704 40.7331 207.384 41.224 207.665 41.9178H204.156C204.437 41.224 205.117 40.7331 205.911 40.7331ZM205.911 44.5203C205.117 44.5203 204.437 44.0292 204.156 43.3355H207.665C207.384 44.0292 206.704 44.5203 205.911 44.5203ZM220.794 36.9831C220.001 36.9831 219.32 36.492 219.039 35.7983H222.549C222.267 36.492 221.587 36.9831 220.794 36.9831ZM222.549 34.3805H219.039C219.32 33.6869 220 33.1957 220.794 33.1957C221.587 33.1957 222.267 33.6868 222.549 34.3805ZM225.595 25.1556C224.802 25.1556 224.121 24.6645 223.84 23.9707H227.35C227.068 24.6645 226.388 25.1556 225.595 25.1556ZM225.595 21.3682C226.388 21.3682 227.068 21.8593 227.35 22.553H223.84C224.121 21.8593 224.801 21.3682 225.595 21.3682Z" fill="#426AE3"/>
<path d="M190.786 22.553V23.9707H192.006C192.239 27.2379 193.603 30.1967 195.707 32.4582L194.816 33.3492L195.819 34.3516L196.724 33.4463C199.013 35.4558 201.964 36.7294 205.202 36.8925V38.2073H206.62V36.8923C209.868 36.7288 212.827 35.4474 215.119 33.4269L216.153 34.4613L217.156 33.4589L216.134 32.4369C218.227 30.1783 219.583 27.2277 219.815 23.9709H221.038V22.5531H219.845C219.746 19.2 218.457 16.1407 216.388 13.7828L217.333 12.8375L217.339 12.8311L216.329 11.837L215.4 12.766C213.071 10.5987 210.003 9.21631 206.62 9.04596V7.76169H205.202V9.04574C201.832 9.21522 198.774 10.5878 196.448 12.7408L195.541 11.8321L194.538 12.834L195.458 13.7552C193.374 16.1168 192.075 19.1868 191.976 22.553H190.786ZM196.461 14.7598L202.425 20.7325L203.428 19.7305L197.45 13.7441C199.518 11.8465 202.222 10.6332 205.202 10.4661V18.9409H206.62V10.4661C209.612 10.6341 212.326 11.8571 214.397 13.7684L208.413 19.7522L209.416 20.7547L215.384 14.7866C217.199 16.885 218.329 19.5905 218.426 22.5529H210.003V23.9706H218.394C218.166 26.8368 216.969 29.4338 215.131 31.434L209.219 25.5213L208.217 26.5238L214.115 32.423C212.083 34.1889 209.478 35.3115 206.62 35.472V27.1364H205.202V35.472C202.354 35.3124 199.757 34.1973 197.728 32.4422L203.627 26.5434L202.625 25.5409L196.71 31.4555C194.861 29.4526 193.656 26.8472 193.427 23.9707H201.819V22.553H193.395C193.492 19.5779 194.632 16.8619 196.461 14.7598Z" fill="#426AE3"/>
<path d="M205.911 26.0111C207.55 26.0111 208.883 24.6777 208.883 23.0387C208.883 21.3998 207.55 20.0663 205.911 20.0663C204.272 20.0663 202.938 21.3998 202.938 23.0387C202.938 24.6777 204.272 26.0111 205.911 26.0111ZM205.911 21.484C206.768 21.484 207.466 22.1814 207.466 23.0386C207.466 23.8958 206.768 24.5933 205.911 24.5933C205.054 24.5933 204.356 23.8958 204.356 23.0386C204.356 22.1814 205.054 21.484 205.911 21.484Z" fill="#426AE3"/>
<path d="M186.358 26.5733C187.145 26.5733 187.868 26.2973 188.436 25.8375C188.713 27.5854 189.249 29.2735 190.045 30.8806L191.315 30.2516C190.289 28.1793 189.73 25.9599 189.647 23.6466C189.661 23.5203 189.67 23.3921 189.67 23.2619C189.67 23.1096 189.658 22.96 189.638 22.8131C189.681 19.7259 190.585 16.7486 192.262 14.1733C193.258 13.7403 194 12.8321 194.202 11.7365C197.296 8.52828 201.445 6.76316 205.911 6.76316C210.314 6.76316 214.438 8.4936 217.523 11.6361C217.611 11.7255 217.702 11.8209 217.793 11.9185C218.1 13.4288 219.438 14.5689 221.038 14.5689C222.864 14.5689 224.35 13.0833 224.35 11.2575C224.35 9.43161 222.864 7.94601 221.038 7.94601C219.63 7.94601 218.425 8.82982 217.947 10.0715C215.272 7.58197 211.958 6.01142 208.379 5.51597C208.903 4.93 209.222 4.15742 209.222 3.31146C209.222 1.48549 207.737 0 205.911 0C204.085 0 202.6 1.4856 202.6 3.31146C202.6 4.15993 202.921 4.93458 203.447 5.52109C199.953 6.01698 196.656 7.55438 194.03 9.93033C193.547 8.69873 192.347 7.82387 190.946 7.82387C189.12 7.82387 187.635 9.30935 187.635 11.1353C187.635 12.7966 188.864 14.1757 190.462 14.411C189.38 16.3422 188.677 18.4506 188.38 20.6422C187.821 20.2091 187.119 19.9504 186.358 19.9504C184.532 19.9504 183.047 21.4359 183.047 23.2619C183.047 25.0878 184.532 26.5733 186.358 26.5733ZM221.038 13.1513C220.245 13.1513 219.565 12.6602 219.283 11.9665H222.793C222.511 12.6602 221.832 13.1513 221.038 13.1513ZM221.038 9.36388C221.831 9.36388 222.511 9.85487 222.793 10.5487H219.283C219.565 9.85487 220.245 9.36388 221.038 9.36388ZM205.911 5.20526C205.118 5.20526 204.437 4.71417 204.156 4.02045H207.666C207.384 4.71417 206.704 5.20526 205.911 5.20526ZM205.911 1.41787C206.704 1.41787 207.384 1.90896 207.666 2.60268H204.156C204.438 1.90896 205.118 1.41787 205.911 1.41787ZM186.358 25.1556C185.565 25.1556 184.885 24.6645 184.603 23.9708H188.113C187.832 24.6645 187.152 25.1556 186.358 25.1556ZM190.946 9.24174C191.74 9.24174 192.42 9.73283 192.701 10.4266H189.191C189.473 9.73283 190.153 9.24174 190.946 9.24174ZM189.191 11.8443H192.701C192.42 12.538 191.74 13.0291 190.946 13.0291C190.153 13.0291 189.473 12.538 189.191 11.8443ZM186.358 21.3682C187.152 21.3682 187.832 21.8593 188.113 22.553H184.603C184.885 21.8593 185.565 21.3682 186.358 21.3682Z" fill="#426AE3"/>
<path d="M221.709 52.5177V51.1H219.339L213.42 40.7053L212.187 41.4068L217.708 51.1H194.301L199.666 41.463L198.427 40.7735L192.678 51.1H190.112V52.5177H191.889H220.147H221.709Z" fill="#426AE3"/>
<path d="M214.735 48.6194H211.625V50.0372H214.735V48.6194Z" fill="#426AE3"/>
<path d="M210.353 48.6194H197.086V50.0372H210.353V48.6194Z" fill="#426AE3"/>
<path d="M266.707 11.8442H273.274V30.0353C273.274 36.9284 268.135 41.0071 262.098 41.0071C256.021 41.0071 250.882 36.9284 250.882 30.0353V11.8442H257.449V30.0761C257.449 33.9917 260.1 34.8482 262.098 34.8482C264.097 34.8482 266.707 33.9917 266.707 30.0761V11.8442ZM308.963 11.8442V40.3953H302.192V26.6092L296.36 40.3953H290.69L284.939 26.6908V40.3953H278.169V11.8442H284.654L293.586 31.6668L302.478 11.8442H308.963ZM330.091 24.5291C332.946 25.3448 335.883 27.9144 335.883 31.9931C335.883 37.2139 332.62 40.3953 325.482 40.3953H313.857V11.8442H324.707C330.703 11.8442 333.721 15.2296 333.721 19.0636C333.721 22.2042 331.681 23.7949 330.091 24.5291ZM324.095 17.5544H320.424V22.6528H324.095C326.42 22.6528 327.195 21.5924 327.195 20.0832C327.195 18.4518 326.216 17.5544 324.095 17.5544ZM325.115 34.6851C328.011 34.6851 329.316 33.4615 329.316 31.1366C329.316 29.1788 328.011 27.9144 324.788 27.9144H320.424V34.6851H325.115ZM362.517 40.3953L360.518 35.664H347.099L345.101 40.3953H338.126L350.811 11.8442H356.806L369.491 40.3953H362.517ZM349.383 30.3209H358.275L353.829 19.7977L349.383 30.3209ZM388.661 40.3953L382.829 31.055H379.321V40.3953H372.754V11.8442H382.91C389.314 11.8442 393.556 15.719 393.556 21.6739C393.556 25.4672 391.761 28.3223 388.743 29.7906L395.595 40.3953H388.661ZM379.321 17.8807V25.4672H382.502C385.154 25.4672 386.989 24.5291 386.989 21.6739C386.989 18.8596 385.154 17.8807 382.502 17.8807H379.321ZM422.025 40.3953L420.027 35.664H406.608L404.609 40.3953H397.635L410.319 11.8442H416.315L429 40.3953H422.025ZM408.892 30.3209H417.783L413.338 19.7977L408.892 30.3209Z" fill="#426AE3"/>
</g>
<defs>
<clipPath id="clip0_3_19">
<rect width="429" height="52.5177" fill="white"/>
</clipPath>
</defs>
</svg>
