<svg width="33" height="32" viewBox="0 0 33 32" fill="none" xmlns="http://www.w3.org/2000/svg">
<path d="M9.79688 16C11.0276 16 12.208 15.5259 13.0783 14.682C13.9486 13.8381 14.4375 12.6935 14.4375 11.5C14.4375 10.3065 13.9486 9.16193 13.0783 8.31802C12.208 7.47411 11.0276 7 9.79688 7C8.5661 7 7.38574 7.47411 6.51546 8.31802C5.64517 9.16193 5.15625 10.3065 5.15625 11.5C5.15625 12.6935 5.64517 13.8381 6.51546 14.682C7.38574 15.5259 8.5661 16 9.79688 16Z" fill="#9A9A9A"/>
<path d="M15.0824 18.5C13.2674 17.6067 11.264 17.2493 9.79688 17.2493C6.92313 17.2493 1.03125 18.9587 1.03125 22.3747V25H10.6989V23.996C10.6989 22.8093 11.2145 21.6173 12.1179 20.6253C12.837 19.832 13.8449 19.0973 15.0824 18.5Z" fill="#9A9A9A"/>
<path d="M21.9147 18C18.5584 18 11.8594 20.0107 11.8594 24V27H31.9688V24C31.9688 20.0107 25.2711 18 21.9147 18Z" fill="#9A9A9A"/>
<path d="M21.9146 16C23.4188 16 24.8615 15.4205 25.9252 14.3891C26.9889 13.3576 27.5864 11.9587 27.5864 10.5C27.5864 9.04131 26.9889 7.64236 25.9252 6.61091C24.8615 5.57946 23.4188 5 21.9146 5C20.4103 5 18.9676 5.57946 17.9039 6.61091C16.8402 7.64236 16.2427 9.04131 16.2427 10.5C16.2427 11.9587 16.8402 13.3576 17.9039 14.3891C18.9676 15.4205 20.4103 16 21.9146 16Z" fill="#9A9A9A"/>
</svg>
