<svg width="46" height="46" viewBox="0 0 46 46" fill="none" xmlns="http://www.w3.org/2000/svg">
<path d="M4.32785 10.189C3.8854 10.4408 3.51776 10.8056 3.26251 11.2461C3.00725 11.6866 2.87353 12.1869 2.87501 12.696V39.3568C2.87367 39.8644 3.00673 40.3633 3.26066 40.8028C3.51459 41.2423 3.88035 41.6067 4.32075 41.859C4.76116 42.1113 5.26052 42.2426 5.76808 42.2394C6.27564 42.2362 6.77331 42.0987 7.21051 41.8408L14.7698 36.8958C14.8706 36.8303 14.9532 36.7405 15.0101 36.6346C15.0671 36.5288 15.0965 36.4103 15.0957 36.2902V4.18025C15.096 4.04941 15.0607 3.92096 14.9934 3.80874C14.9261 3.69652 14.8294 3.6048 14.7139 3.54346C14.5983 3.48213 14.4682 3.4535 14.3375 3.46068C14.2069 3.46785 14.0807 3.51055 13.9725 3.58417L4.32785 10.189Z" fill="#404040"/>
<path d="M19.0785 3.5305C18.9702 3.4603 18.845 3.42054 18.7161 3.41541C18.5872 3.41027 18.4592 3.43994 18.3457 3.50131C18.2322 3.56268 18.1373 3.65348 18.0709 3.76417C18.0046 3.87486 17.9693 4.00137 17.9688 4.13042V36.2557C17.9684 36.3755 17.9981 36.4935 18.055 36.5989C18.1119 36.7044 18.1943 36.7939 18.2946 36.8594L26.9196 42.4676C27.028 42.5384 27.1536 42.5786 27.283 42.5839C27.4124 42.5892 27.5408 42.5595 27.6547 42.4978C27.7686 42.4361 27.8637 42.3449 27.93 42.2336C27.9963 42.1224 28.0313 41.9953 28.0313 41.8658V9.76158C28.0316 9.64176 28.0019 9.52377 27.945 9.41832C27.8881 9.31288 27.8058 9.22333 27.7054 9.15783L19.0785 3.5305Z" fill="#404040"/>
<path d="M41.7354 4.17642C41.2929 3.906 40.7848 3.76181 40.2662 3.75944C39.7477 3.75708 39.2383 3.89663 38.7933 4.163L31.2321 9.10608C31.1318 9.17158 31.0494 9.26113 30.9925 9.36657C30.9356 9.47202 30.9059 9.59001 30.9063 9.70983V41.8255C30.906 41.9565 30.9416 42.085 31.0091 42.1973C31.0766 42.3095 31.1735 42.4012 31.2894 42.4624C31.4052 42.5235 31.5355 42.5519 31.6663 42.5444C31.7971 42.5368 31.9233 42.4937 32.0313 42.4197L41.6511 35.8206C42.0989 35.5707 42.4717 35.2056 42.7308 34.7631C42.99 34.3206 43.1261 33.8168 43.125 33.304V6.71025C43.131 6.20403 43.0062 5.70485 42.7628 5.26097C42.5193 4.81708 42.1655 4.44352 41.7354 4.17642Z" fill="#404040"/>
</svg>
