<svg width="33" height="33" viewBox="0 0 33 33" fill="none" xmlns="http://www.w3.org/2000/svg">
<path d="M16.5 18.0469C16.9103 18.0469 17.3037 17.8839 17.5938 17.5938C17.8839 17.3037 18.0469 16.9103 18.0469 16.5C18.0469 16.0897 17.8839 15.6963 17.5938 15.4062C17.3037 15.1161 16.9103 14.9531 16.5 14.9531C16.0897 14.9531 15.6963 15.1161 15.4062 15.4062C15.1161 15.6963 14.9531 16.0897 14.9531 16.5C14.9531 16.9103 15.1161 17.3037 15.4062 17.5938C15.6963 17.8839 16.0897 18.0469 16.5 18.0469Z" fill="#9A9A9A"/>
<path d="M16.5 3.09375C9.108 3.09375 3.09375 9.108 3.09375 16.5C3.09375 23.892 9.108 29.9062 16.5 29.9062C23.892 29.9062 29.9062 23.892 29.9062 16.5C29.9062 9.108 23.892 3.09375 16.5 3.09375ZM23.2719 10.3977L20.251 17.952C20.0434 18.4709 19.7326 18.9422 19.3374 19.3374C18.9422 19.7326 18.4709 20.0434 17.952 20.251L10.3977 23.2719C10.3042 23.3084 10.202 23.3169 10.1037 23.2963C10.0054 23.2757 9.91518 23.2269 9.84415 23.1559C9.77312 23.0848 9.72432 22.9946 9.70371 22.8963C9.68311 22.798 9.69159 22.6958 9.72812 22.6022L12.749 15.048C12.9565 14.529 13.2672 14.0576 13.6624 13.6624C14.0576 13.2672 14.529 12.9565 15.048 12.749L22.6022 9.72812C22.6958 9.69092 22.7983 9.68194 22.8969 9.7023C22.9956 9.72266 23.0861 9.77146 23.1573 9.84268C23.2285 9.9139 23.2773 10.0044 23.2977 10.1031C23.3181 10.2017 23.3091 10.3042 23.2719 10.3977Z" fill="#9A9A9A"/>
</svg>
