<svg width="59" height="59" viewBox="0 0 59 59" fill="none" xmlns="http://www.w3.org/2000/svg">
<path d="M49.7812 11.0625H38.7187V8.29688C38.7187 7.69156 38.5995 7.09218 38.3679 6.53294C38.1362 5.97371 37.7967 5.46558 37.3687 5.03756C36.9407 4.60954 36.4325 4.27001 35.8733 4.03837C35.3141 3.80673 34.7147 3.6875 34.1094 3.6875H24.8906C23.6681 3.6875 22.4957 4.17313 21.6313 5.03756C20.7669 5.90198 20.2812 7.07439 20.2812 8.29688V11.0625H9.21875C8.72976 11.0625 8.26079 11.2568 7.91502 11.6025C7.56925 11.9483 7.375 12.4173 7.375 12.9063C7.375 13.3952 7.56925 13.8642 7.91502 14.21C8.26079 14.5557 8.72976 14.75 9.21875 14.75H11.178L13.366 49.887C13.5307 52.982 15.903 55.3125 18.8972 55.3125H40.1003C43.1118 55.3125 45.4349 53.0336 45.6316 49.8968L47.822 14.75H49.7812C50.2702 14.75 50.7392 14.5557 51.085 14.21C51.4307 13.8642 51.625 13.3952 51.625 12.9063C51.625 12.4173 51.4307 11.9483 51.085 11.6025C50.7392 11.2568 50.2702 11.0625 49.7812 11.0625ZM22.1914 47.9375H22.125C21.6473 47.9378 21.1881 47.7527 20.8442 47.4212C20.5003 47.0896 20.2984 46.6375 20.2812 46.1601L19.3594 20.3476C19.3418 19.8586 19.5191 19.3827 19.8525 19.0245C20.1858 18.6662 20.6478 18.4551 21.1367 18.4375C21.6257 18.4199 22.1017 18.5973 22.4599 18.9306C22.8181 19.2639 23.0293 19.7259 23.0469 20.2149L23.9687 46.0274C23.9776 46.2695 23.9387 46.5111 23.8541 46.7382C23.7696 46.9653 23.6411 47.1735 23.476 47.3509C23.3109 47.5283 23.1125 47.6714 22.8921 47.7721C22.6717 47.8727 22.4336 47.9289 22.1914 47.9375ZM31.3437 46.0937C31.3437 46.5827 31.1495 47.0517 30.8037 47.3975C30.458 47.7432 29.989 47.9375 29.5 47.9375C29.011 47.9375 28.542 47.7432 28.1963 47.3975C27.8505 47.0517 27.6562 46.5827 27.6562 46.0937V20.2813C27.6562 19.7923 27.8505 19.3233 28.1963 18.9775C28.542 18.6318 29.011 18.4375 29.5 18.4375C29.989 18.4375 30.458 18.6318 30.8037 18.9775C31.1495 19.3233 31.3437 19.7923 31.3437 20.2813V46.0937ZM35.0312 11.0625H23.9687V8.29688C23.9671 8.17536 23.9898 8.05474 24.0356 7.94214C24.0813 7.82955 24.1491 7.72726 24.2351 7.64133C24.321 7.55539 24.4233 7.48755 24.5359 7.44181C24.6485 7.39606 24.7691 7.37335 24.8906 7.375H34.1094C34.2308 7.37368 34.3513 7.39663 34.4637 7.44249C34.5762 7.48836 34.6783 7.55621 34.7642 7.64208C34.85 7.72795 34.9179 7.8301 34.9638 7.94254C35.0096 8.05498 35.0326 8.17545 35.0312 8.29688V11.0625ZM38.7187 46.1601C38.7016 46.6375 38.4997 47.0896 38.1558 47.4212C37.8119 47.7527 37.3527 47.9378 36.875 47.9375H36.8086C36.5664 47.9289 36.3283 47.8727 36.1079 47.7721C35.8875 47.6714 35.689 47.5283 35.524 47.3509C35.3589 47.1735 35.2304 46.9653 35.1459 46.7382C35.0613 46.5111 35.0224 46.2695 35.0312 46.0274L35.9531 20.2149C35.9618 19.9727 36.0182 19.7347 36.1189 19.5144C36.2196 19.294 36.3627 19.0956 36.5401 18.9306C36.7175 18.7655 36.9256 18.6371 37.1526 18.5524C37.3797 18.4678 37.6211 18.4288 37.8633 18.4375C38.1054 18.4462 38.3434 18.5025 38.5638 18.6032C38.7841 18.704 38.9825 18.8471 39.1475 19.0245C39.3126 19.2018 39.4411 19.41 39.5257 19.637C39.6103 19.864 39.6493 20.1055 39.6406 20.3476L38.7187 46.1601Z" fill="white"/>
</svg>
